<!-- Generated by IcoMoon.io -->
<svg version="1.1" xmlns="http://www.w3.org/2000/svg" width="8704" height="1024" viewBox="0 0 8704 1024">
<g id="icomoon-ignore">
</g>
<path fill="#475467" d="M8665.152 460h-230.912c-1.216-14.242-6.208-26.515-15.040-36.818-8.768-10.303-20.16-18.182-34.048-23.636-13.696-5.757-28.8-8.636-45.504-8.636-21.504 0-40 3.939-55.424 11.818-15.488 7.878-23.040 19.091-22.72 33.636-0.32 10.303 4.096 19.848 13.184 28.636 9.344 8.788 27.392 15.606 54.080 20.454l141.824 25.455c71.488 13.030 124.672 35 159.552 65.909 35.136 30.606 52.864 71.668 53.184 123.181-0.32 49.696-15.168 92.877-44.544 129.549-29.12 36.358-68.992 64.544-119.552 84.544-50.304 19.693-107.776 29.542-172.288 29.542-106.688 0-190.144-21.818-250.432-65.453-60.032-43.635-93.504-101.21-100.48-172.73h249.088c3.328 22.125 14.272 39.245 32.704 51.366 18.816 11.814 42.432 17.728 70.912 17.728 23.040 0 41.984-3.942 56.832-11.821 15.168-7.878 22.912-19.091 23.168-33.632-0.256-13.338-6.976-23.942-19.968-31.821-12.736-7.878-32.768-14.24-60.032-19.091l-123.584-21.818c-71.232-12.422-124.544-36.061-160-70.91s-53.056-79.697-52.736-134.545c-0.32-48.485 12.416-89.546 38.144-123.182 26.048-33.939 63.168-59.697 111.36-77.272 48.512-17.879 105.92-26.819 172.288-26.819 100.928 0 180.48 20.909 238.656 62.728 58.496 41.818 89.216 99.697 92.288 173.636z"></path>
<path fill="#475467" d="M7450.56 765.453l1.792-298.18h32.768l169.088-234.546h281.792l-283.648 365.455h-70.912l-130.88 167.271zM7225.088 930.912v-930.912h250.944v930.912h-250.944zM7656 930.912l-160-276.365 163.648-178.184 283.648 454.548h-287.296z"></path>
<path fill="#475467" d="M6759.616 943.635c-75.776 0-140.608-15.002-194.56-44.998-53.952-30.304-95.296-72.422-124.096-126.362-28.8-54.246-43.168-117.126-43.168-188.639 0-71.515 14.368-134.243 43.168-188.182 28.8-54.243 70.144-96.364 124.096-126.364 53.952-30.303 118.784-45.455 194.56-45.455 68.48 0 127.744 12.424 177.728 37.273 50.304 24.545 89.216 59.394 116.8 104.545 27.584 44.849 41.536 97.576 41.856 158.182h-232.768c-3.328-36.666-13.952-64.545-31.808-83.636-17.6-19.394-40.32-29.091-68.16-29.091-21.824 0-40.96 6.364-57.28 19.091-16.384 12.424-29.12 31.364-38.208 56.819-9.088 25.151-13.632 56.818-13.632 95s4.544 70.003 13.632 95.455c9.088 25.152 21.824 44.090 38.208 56.819 16.32 12.422 35.456 18.637 57.28 18.637 18.496 0 34.816-4.243 49.088-12.73 14.208-8.787 25.728-21.517 34.56-38.182 9.088-16.966 14.528-37.574 16.32-61.818h232.768c-0.96 61.517-15.040 115.149-42.304 160.909-27.264 45.453-65.92 80.608-115.904 105.453-49.728 24.851-109.12 37.274-178.176 37.274z"></path>
<path fill="#475467" d="M6019.117 625.454v-392.728h250.912v698.179h-238.182v-132.723h-7.277c-15.149 44.544-41.664 79.392-79.539 104.544-37.882 24.851-82.88 37.274-135.002 37.274-48.787 0-91.52-11.213-128.186-33.638-36.365-22.426-64.698-53.331-84.998-92.723-20-39.398-30.15-84.55-30.451-135.456v-445.456h250.906v392.728c0.301 34.546 9.094 61.669 26.362 81.362 17.581 19.699 42.125 29.549 73.638 29.549 20.909 0 38.938-4.397 54.093-13.184 15.456-9.088 27.27-21.818 35.456-38.182 8.48-16.666 12.576-36.512 12.269-59.544z"></path>
<path fill="#475467" d="M4985.792 930.912v-698.184h243.635v132.727h7.27c12.73-49.091 32.877-85 60.454-107.727 27.878-22.727 60.454-34.091 97.728-34.091 10.912 0 21.664 0.909 32.275 2.728 10.906 1.515 21.363 3.788 31.36 6.818v214.091c-12.422-4.243-27.725-7.424-45.907-9.546s-33.786-3.181-46.816-3.181c-24.55 0-46.669 5.606-66.368 16.818-19.392 10.909-34.694 26.364-45.907 46.364-11.213 19.697-16.819 42.879-16.819 69.546v363.639h-250.906z"></path>
<path fill="#475467" d="M4124.851 203.636v-203.636h809.088v203.636h-280v727.276h-249.088v-727.276h-280z"></path>
<path fill="#101828" d="M4000.506 0v930.912h-250.912v-930.912h250.912z"></path>
<path fill="#101828" d="M3279.789 943.635c-74.547 0-138.79-14.24-192.73-42.726-53.632-28.787-94.995-69.997-124.090-123.635-28.787-53.939-43.181-118.483-43.181-193.637 0-72.121 14.547-135.151 43.635-189.091 29.094-53.94 70.15-95.909 123.181-125.909s115.61-45 187.731-45c52.723 0 100.454 8.182 143.181 24.546s79.245 40.151 109.542 71.363c30.304 30.909 53.638 68.485 70.003 112.728s24.544 94.091 24.544 149.545v58.182h-623.635v-138.182h392.73c-0.307-20-5.459-37.576-15.456-52.727-9.696-15.455-22.88-27.424-39.546-35.909-16.365-8.788-35.002-13.182-55.91-13.182-20.301 0-38.938 4.394-55.91 13.182-16.966 8.485-30.605 20.303-40.909 35.455-9.997 15.151-15.302 32.879-15.91 53.181v149.094c0 22.419 4.698 42.419 14.093 60 9.395 17.574 22.88 31.36 40.454 41.363 17.574 9.997 38.79 14.995 63.635 14.995 17.274 0 33.030-2.419 47.277-7.27 14.541-4.851 26.97-11.821 37.274-20.909 10.298-9.395 17.875-20.608 22.726-33.638h229.088c-7.878 48.486-26.515 90.611-55.91 126.368-29.389 35.45-68.333 63.027-116.819 82.726-48.179 19.392-104.544 29.088-169.088 29.088z"></path>
<path fill="#101828" d="M2869.53 232.726l-234.541 698.179h-290.912l-234.547-698.179h263.635l112.73 461.821h7.27l112.73-461.821h263.635z"></path>
<path fill="#101828" d="M1603.584 941.818c-44.544 0-83.936-7.27-118.182-21.818-33.939-14.848-60.602-37.274-80-67.27-19.392-30.003-29.088-68.186-29.088-114.547 0-38.182 6.515-70.758 19.546-97.728 13.030-27.272 31.213-49.545 54.547-66.818 23.328-17.272 50.451-30.454 81.363-39.545 31.213-9.091 64.845-15 100.909-17.727 39.091-3.030 70.451-6.667 94.086-10.909 23.942-4.545 41.216-10.758 51.821-18.636 10.605-8.182 15.91-18.94 15.91-32.273v-1.818c0-18.182-6.97-32.122-20.909-41.818s-31.821-14.545-53.638-14.545c-23.942 0-43.482 5.303-58.637 15.909-14.848 10.303-23.789 26.212-26.816 47.727h-230.912c3.034-42.424 16.518-81.515 40.454-117.272 24.243-36.061 59.546-64.849 105.914-86.364 46.362-21.818 104.237-32.728 173.632-32.728 50.003 0 94.848 5.909 134.547 17.727 39.699 11.516 73.485 27.727 101.363 48.636 27.878 20.606 49.088 44.849 63.635 72.728 14.848 27.576 22.272 57.576 22.272 90v478.184h-234.541v-98.182h-5.459c-13.939 26.061-30.906 47.117-50.906 63.181-19.699 16.058-42.272 27.725-67.731 35.002-25.152 7.27-52.877 10.906-83.181 10.906zM1685.402 783.635c19.091 0 36.973-3.936 53.638-11.814 16.966-7.878 30.758-19.245 41.363-34.093s15.91-32.877 15.91-54.093v-58.18c-6.669 2.728-13.792 5.303-21.363 7.727-7.277 2.424-15.155 4.697-23.635 6.818-8.186 2.118-16.973 4.090-26.368 5.907-9.088 1.818-18.637 3.488-28.634 5.005-19.392 3.027-35.302 8.026-47.731 14.995-12.122 6.669-21.21 15.002-27.27 25.005-5.76 9.696-8.634 20.602-8.634 32.723 0 19.398 6.816 34.246 20.454 44.544 13.632 10.304 31.059 15.456 52.269 15.456z"></path>
<path fill="#101828" d="M860.934 930.912v-698.184h243.642v132.727h7.27c12.73-49.091 32.877-85 60.454-107.727 27.878-22.727 60.454-34.091 97.728-34.091 10.906 0 21.664 0.909 32.275 2.728 10.906 1.515 21.363 3.788 31.36 6.818v214.091c-12.422-4.243-27.725-7.424-45.907-9.546s-33.792-3.181-46.822-3.181c-24.544 0-46.662 5.606-66.362 16.818-19.392 10.909-34.694 26.364-45.907 46.364-11.213 19.697-16.819 42.879-16.819 69.546v363.639h-250.912z"></path>
<path fill="#101828" d="M0 203.636v-203.636h809.088v203.636h-279.997v727.276h-249.091v-727.276h-280z"></path>
</svg>
